<svg xmlns="http://www.w3.org/2000/svg" viewBox="0 0 64 64" role="img" aria-label="Coco Guna">
  <defs>
    <linearGradient id="coco-shell" x1="0%" y1="0%" x2="100%" y2="100%">
      <stop offset="0%" stop-color="#8B5E3C"/>
      <stop offset="50%" stop-color="#6B4226"/>
      <stop offset="100%" stop-color="#4A2C17"/>
    </linearGradient>
    <linearGradient id="coco-husk" x1="0%" y1="0%" x2="0%" y2="100%">
      <stop offset="0%" stop-color="#5D8A3E"/>
      <stop offset="100%" stop-color="#3D6B28"/>
    </linearGradient>
    <radialGradient id="coco-highlight" cx="35%" cy="30%" r="50%">
      <stop offset="0%" stop-color="#ffffff" stop-opacity="0.35"/>
      <stop offset="100%" stop-color="#ffffff" stop-opacity="0"/>
    </radialGradient>
  </defs>
  <ellipse cx="32" cy="52" rx="18" ry="6" fill="#000" opacity="0.12"/>
  <path d="M18 28 C14 18 20 8 32 6 C44 8 50 18 46 28 C48 38 42 50 32 54 C22 50 16 38 18 28 Z" fill="url(#coco-husk)"/>
  <ellipse cx="32" cy="30" rx="14" ry="16" fill="url(#coco-shell)"/>
  <ellipse cx="32" cy="30" rx="14" ry="16" fill="url(#coco-highlight)"/>
  <circle cx="28" cy="26" r="2.5" fill="#3D2817" opacity="0.5"/>
  <circle cx="36" cy="28" r="2" fill="#3D2817" opacity="0.4"/>
  <circle cx="32" cy="34" r="2.2" fill="#3D2817" opacity="0.45"/>
  <path d="M32 14 L32 10 M26 16 L24 12 M38 16 L40 12" stroke="#3D6B28" stroke-width="2" stroke-linecap="round"/>
</svg>
