<svg xmlns="http://www.w3.org/2000/svg" viewBox="0 0 1000 520" role="img" aria-label="Map of Panama with Guna Yala highlighted">
  <defs>
    <linearGradient id="sea" x1="0" y1="0" x2="0" y2="1">
      <stop offset="0%" stop-color="#c5e3f0"/>
      <stop offset="100%" stop-color="#a8d4e8"/>
    </linearGradient>
  </defs>
  <rect width="1000" height="520" fill="url(#sea)" rx="16"/>
  <!-- Panama landmass -->
  <path fill="#f3efe6" stroke="#8a8a8a" stroke-width="1.2"
    d="M120,210 L180,175 L250,155 L340,140 L430,128 L520,118 L610,112 L700,108 L780,105 L860,108 L920,118 L960,135 L980,160 L975,190 L950,215 L900,235 L840,250 L780,262 L720,272 L660,282 L600,292 L540,302 L480,312 L420,322 L360,332 L300,342 L240,352 L190,365 L150,380 L125,360 L110,330 L105,295 L108,260 Z"/>
  <!-- Azuero peninsula -->
  <path fill="#f3efe6" stroke="#8a8a8a" stroke-width="1.2"
    d="M280,360 L320,390 L350,420 L370,450 L360,475 L330,490 L300,480 L270,450 L255,420 L260,390 Z"/>
  <!-- Darien / east -->
  <path fill="#f3efe6" stroke="#8a8a8a" stroke-width="1.2"
    d="M780,262 L840,250 L900,235 L950,215 L975,190 L990,210 L995,250 L985,300 L970,340 L950,370 L920,395 L880,410 L840,415 L800,400 L770,370 L760,330 L765,295 Z"/>
  <!-- Guna Yala  red coastal strip -->
  <path fill="#c62828" stroke="#8b1a1a" stroke-width="0.8"
    d="M610,112 L700,108 L780,105 L860,108 L920,118 L960,135 L975,155 L968,168 L940,162 L900,155 L860,150 L820,148 L780,148 L740,150 L700,155 L660,158 L630,155 L615,140 Z"/>
  <path fill="#c62828" stroke="#8b1a1a" stroke-width="0.8"
    d="M630,155 L660,158 L700,162 L740,168 L780,175 L820,182 L860,190 L900,200 L935,210 L955,220 L945,235 L910,228 L870,218 L830,208 L790,200 L750,192 L710,185 L670,178 Z"/>
  <!-- Province lines -->
  <path fill="none" stroke="#bdbdbd" stroke-width="0.7" opacity="0.8"
    d="M430,128 L420,322 M610,112 L600,292 M780,105 L760,330"/>
</svg>
